<?xml version="1.0" encoding="iso-8859-1"?>
<!-- Generator: Adobe Illustrator 16.0.0, SVG Export Plug-In . SVG Version: 6.00 Build 0)  -->
<!DOCTYPE svg PUBLIC "-//W3C//DTD SVG 1.1//EN" "http://www.w3.org/Graphics/SVG/1.1/DTD/svg11.dtd">
<svg version="1.1" id="Capa_1" xmlns="http://www.w3.org/2000/svg" xmlns:xlink="http://www.w3.org/1999/xlink" x="0px" y="0px"
	 width="386.174px" height="386.174px" viewBox="0 0 386.174 386.174" style="enable-background:new 0 0 386.174 386.174;"
	 xml:space="preserve">
<g>
	<g>
		<path d="M327.021,377.205c-2.934,0-5.815-1.146-7.971-3.303l-62.241-62.236H11.27c-6.223,0-11.27-5.053-11.27-11.272V20.239
			c0-6.219,5.047-11.27,11.27-11.27h363.633c6.225,0,11.271,5.051,11.271,11.27v280.153c0,6.221-5.046,11.272-11.271,11.272h-36.615
			v54.271c0,4.555-2.746,8.66-6.959,10.409C329.937,376.917,328.47,377.205,327.021,377.205z M22.54,289.125h238.938
			c2.988,0,5.855,1.188,7.97,3.302l46.301,46.301v-38.334c0-6.228,5.047-11.269,11.271-11.269h36.616V31.51H22.54V289.125z"/>
	</g>
</g>
<g>
</g>
<g>
</g>
<g>
</g>
<g>
</g>
<g>
</g>
<g>
</g>
<g>
</g>
<g>
</g>
<g>
</g>
<g>
</g>
<g>
</g>
<g>
</g>
<g>
</g>
<g>
</g>
<g>
</g>
</svg>
